<?xml version="1.0" encoding="utf-8"?>
<!DOCTYPE svg PUBLIC "-//W3C//DTD SVG 1.1//EN" "http://www.w3.org/Graphics/SVG/1.1/DTD/svg11.dtd">
<svg id="Calque_1" xmlns="http://www.w3.org/2000/svg" xmlns:xlink="http://www.w3.org/1999/xlink" x="0px" y="0px" viewBox="-136.484 -316.789 1133.858 1133.858" enable-background="new -136.484 -316.789 1133.858 1133.858" xml:space="preserve">
    <g>
        <path fill="#FFBB00" d="M912.592,7.876v-92.262c0-25.921-14.039-48.945-34.868-57.151L502.027-289.466
		c-31.399-12.367-65.346-12.367-96.745,0L29.572-141.537C8.75-133.334-5.296-110.314-5.296-84.386V7.876v640.348
		c0,28.24,16.605,52.668,39.936,58.809l385.83,101.279c21.858,5.744,44.514,5.744,66.374,0l385.829-101.279
		c23.329-6.117,39.933-30.568,39.933-58.809L912.592,7.876z" />
    </g>
    <g>
        <path d="M475.655-84.03c-14.407-5.122-29.624-5.122-43.966,0L-5.296,70.841v191.411v13.535V627.74v17.674v4.264
		c0,28.232,16.605,52.672,39.936,58.809l385.83,101.279c21.858,5.738,44.514,5.738,66.374,0l385.829-101.279
		c23.329-6.121,39.933-30.576,39.933-58.809v-0.785v-19.309v-351.86v-11.822V70.823L475.655-84.03z M708.617,103.278
		c0-9.938,8-17.147,16.11-14.531l127.482,41.076c5.548,1.787,9.388,7.735,9.388,14.532v31.212c0,9.941-8,17.149-16.111,14.535
		l-127.484-41.079c-5.545-1.79-9.389-7.741-9.385-14.532V103.278z M479.144,29.352c0-9.938,7.998-17.148,16.11-14.534
		l152.981,49.285c5.545,1.788,9.387,7.736,9.387,14.532v31.213c0,9.942-7.999,17.15-16.111,14.533L488.529,75.097
		c-5.543-1.789-9.39-7.741-9.385-14.533V29.352z M249.673,78.616c0-6.794,3.84-12.745,9.385-14.533l152.981-49.284
		c8.112-2.614,16.112,4.596,16.112,14.533v31.212c0,6.797-3.841,12.744-9.387,14.533l-152.98,49.285
		c-8.111,2.618-16.111-4.593-16.111-14.533V78.616z M45.698,144.355c0-6.797,3.841-12.745,9.387-14.532l127.484-41.076
		c8.109-2.616,16.11,4.594,16.11,14.531v31.213c0,6.796-3.84,12.742-9.386,14.532L61.809,190.102
		c-8.111,2.599-16.111-4.612-16.111-14.535V144.355z" />
    </g>
    <g>
        <path d="M805.098,644.082c-14.544,0-29.07-1.586-43.174-4.717c-5.917-1.311-10.051-6.416-10.051-12.416v-35.291
		c-16.077-5.906-30.894-14.369-44.104-25.191l-30.995,17.68c-1.947,1.109-4.158,1.693-6.397,1.693c-3.565,0-6.999-1.484-9.422-4.074
		c-19.743-21.094-34.714-46.666-43.294-73.953c-1.807-5.732,0.598-11.83,5.848-14.826l30.98-17.66
		c-2.834-16.686-2.834-33.566,0-50.254l-30.979-17.66c-5.249-2.992-7.653-9.092-5.849-14.83
		c8.584-27.289,23.556-52.861,43.297-73.951c2.424-2.588,5.856-4.072,9.42-4.072c2.24,0,4.454,0.586,6.398,1.697l30.992,17.678
		c13.204-10.818,28.02-19.281,44.104-25.191v-35.29c0-5.996,4.124-11.101,10.03-12.412c14.126-3.132,28.675-4.72,43.244-4.72
		c14.543,0,29.068,1.586,43.172,4.714c5.92,1.313,10.054,6.418,10.054,12.416v35.292c16.086,5.91,30.901,14.373,44.102,25.189
		l30.995-17.678c1.946-1.109,4.158-1.697,6.399-1.697c3.563,0,6.997,1.486,9.42,4.074c19.747,21.1,34.718,46.67,43.296,73.951
		c1.805,5.734-0.598,11.832-5.845,14.828l-30.984,17.662c2.834,16.688,2.833,33.568,0,50.254l30.98,17.66
		c5.249,2.994,7.654,9.09,5.849,14.828c-8.583,27.287-23.555,52.859-43.297,73.951c-2.419,2.59-5.853,4.074-9.418,4.074
		c-2.239,0-4.451-0.584-6.396-1.691l-30.999-17.682c-13.212,10.822-28.026,19.285-44.102,25.191v35.291
		c0,5.994-4.124,11.098-10.03,12.412C834.215,642.494,819.666,644.082,805.098,644.082z M805.124,392.285
		c-32.36,0-58.687,25.98-58.687,57.914s26.326,57.916,58.687,57.916s58.688-25.982,58.688-57.916S837.484,392.285,805.124,392.285z" />
        <path d="M805.148,259.821c14.082,0,28.326,1.507,42.414,4.631c4.271,0.947,7.312,4.68,7.312,8.999v37.756
		c17.289,6.039,33.302,15.18,47.228,26.969l33.104-18.883c1.46-0.832,3.069-1.236,4.665-1.236c2.54,0,5.046,1.023,6.865,2.967
		c19.215,20.531,33.908,45.246,42.512,72.607c1.297,4.121-0.462,8.582-4.241,10.74l-33.128,18.885
		c3.326,17.813,3.326,36.076,0,53.889l33.126,18.883c3.781,2.156,5.54,6.615,4.243,10.736c-8.605,27.361-23.297,52.08-42.514,72.611
		c-1.817,1.945-4.323,2.965-6.862,2.965c-1.597,0-3.206-0.402-4.666-1.232l-33.104-18.883
		c-13.926,11.783-29.938,20.93-47.228,26.969v37.756c0,4.311-3.028,8.047-7.291,8.996c-13.759,3.051-28.038,4.637-42.484,4.637
		c-14.084,0-28.326-1.506-42.415-4.633c-4.27-0.945-7.31-4.678-7.31-9v-37.756c-17.292-6.039-33.306-15.186-47.229-26.969
		l-33.104,18.883c-1.459,0.83-3.067,1.232-4.663,1.232c-2.54,0-5.046-1.02-6.866-2.965c-19.216-20.531-33.908-45.25-42.511-72.611
		c-1.298-4.121,0.458-8.576,4.243-10.736l33.126-18.883c-3.327-17.813-3.327-36.076,0-53.889l-33.126-18.885
		c-3.785-2.158-5.539-6.617-4.243-10.74c8.604-27.355,23.295-52.076,42.513-72.607c1.818-1.943,4.325-2.965,6.865-2.965
		c1.596,0,3.205,0.404,4.664,1.236l33.102,18.883c13.928-11.789,29.938-20.93,47.229-26.971v-37.754
		c0-4.311,3.028-8.049,7.289-8.995C776.423,261.406,790.7,259.821,805.148,259.821 M805.124,511.615
		c34.29,0,62.188-27.553,62.188-61.416s-27.898-61.414-62.188-61.414c-34.289,0-62.187,27.551-62.187,61.414
		S770.835,511.615,805.124,511.615 M805.148,252.821c-14.824,0-29.627,1.616-44,4.803c-7.522,1.671-12.774,8.18-12.774,15.829
		v32.868c-14.817,5.705-28.552,13.551-40.943,23.391l-28.919-16.496c-2.472-1.41-5.284-2.156-8.133-2.156
		c-4.528,0-8.893,1.889-11.975,5.18c-20.098,21.471-35.341,47.508-44.081,75.293c-2.304,7.326,0.762,15.105,7.454,18.922
		l28.871,16.457c-2.378,15.479-2.378,31.104,0,46.578l-28.871,16.457c-6.695,3.82-9.76,11.602-7.453,18.922
		c8.734,27.779,23.977,53.816,44.076,75.291c3.082,3.293,7.447,5.182,11.978,5.182c2.845,0,5.655-0.742,8.126-2.15l28.928-16.5
		c12.396,9.844,26.131,17.689,40.942,23.391v32.869c0,7.654,5.262,14.166,12.796,15.834c14.348,3.184,29.129,4.799,43.929,4.799
		c14.821,0,29.624-1.615,43.999-4.803c7.525-1.676,12.776-8.184,12.776-15.83V594.08c14.809-5.701,28.542-13.547,40.94-23.391
		l28.922,16.498c2.48,1.41,5.29,2.152,8.135,2.152c4.531,0,8.897-1.891,11.978-5.186c20.094-21.469,35.337-47.506,44.076-75.291
		c2.304-7.32-0.761-15.102-7.453-18.918l-28.872-16.457c2.377-15.475,2.377-31.1,0-46.576l28.873-16.459
		c6.693-3.822,9.756-11.604,7.451-18.924c-8.733-27.775-23.976-53.811-44.077-75.289c-3.084-3.295-7.448-5.184-11.977-5.184
		c-2.848,0-5.66,0.746-8.133,2.156l-28.922,16.496c-12.39-9.838-26.123-17.684-40.941-23.389v-32.87
		c0-7.651-5.262-14.162-12.796-15.833C834.726,254.435,819.945,252.821,805.148,252.821L805.148,252.821z M805.124,504.615
		c-30.43,0-55.187-24.412-55.187-54.416s24.757-54.414,55.187-54.414c30.431,0,55.188,24.41,55.188,54.414
		S835.554,504.615,805.124,504.615L805.124,504.615z" />
    </g>
    <g>
        <path fill="#FFBB00" d="M985.027,496.033l-33.129-18.887c3.324-17.809,3.324-36.078,0-53.887l33.129-18.891
		c3.783-2.158,5.538-6.617,4.245-10.74c-8.608-27.361-23.302-52.082-42.521-72.613c-2.962-3.164-7.749-3.889-11.527-1.727
		l-33.109,18.875c-13.927-11.785-29.941-20.926-47.236-26.973v-37.753c0-4.32-3.041-8.055-7.307-9.005
		c-14.1-3.124-28.356-4.625-42.448-4.622v128.972c34.298,0,62.197,27.557,62.197,61.418c0,33.863-27.899,61.416-62.197,61.416
		v128.977c14.442-0.004,28.71-1.582,42.466-4.635c4.26-0.938,7.289-4.682,7.289-8.99v-37.766
		c17.295-6.039,33.31-15.18,47.236-26.965l33.109,18.879c3.778,2.158,8.565,1.436,11.527-1.73
		c19.219-20.533,33.912-45.252,42.521-72.615C990.563,502.65,988.81,498.193,985.027,496.033z" />
    </g>
    <g>
        <path fill="#039c4f" d="M456.826-314.119c-266.511,0-482.941,146.077-526.587,360.416c-7.057-8.678-46.416-47.318-63.556-68.438
		c-3.712-5.558,55.689,147.711,76.84,198.059C-23.253,132.891,68.1,26.226,62.79,30.03C41.729,40.603-2.652,59.044-17.338,64.862
		C18.499-120.476,229.708-273.309,456.82-254.785c251.797,20.535,468.243,93.931,469.458,394.602
		c0.951,235.25-211.944,375.224-469.458,394.599c-100.392,7.553-221.236,4.217-366.916-105.877l-95.191-87.775l50.985,68.869
		c99.715,122.326,243.265,184.119,411.128,184.119c359.564,0,537.879-203.232,537.879-453.935S753.888-314.119,456.826-314.119z" />
    </g>
    <g>
        <path fill="#FFBB00" d="M744.299,450.201c0-33.861,27.897-61.418,62.197-61.418V259.811c-14.439,0.003-28.713,1.58-42.469,4.631
		c-4.26,0.946-7.289,4.683-7.289,8.996v37.753c-17.29,6.047-33.306,15.188-47.236,26.975l-33.104-18.877
		c-3.782-2.162-8.569-1.438-11.531,1.727c-19.219,20.531-33.911,45.252-42.52,72.613c-1.297,4.123,0.462,8.584,4.244,10.74
		l33.13,18.891c-3.326,17.809-3.326,36.078,0,53.887l-33.13,18.887c-3.782,2.16-5.541,6.617-4.244,10.738
		c8.608,27.363,23.301,52.082,42.52,72.615c2.96,3.166,7.749,3.889,11.531,1.73l33.104-18.879
		c13.929,11.785,29.946,20.926,47.236,26.965v37.766c0,4.316,3.044,8.053,7.311,9c14.094,3.129,28.354,4.625,42.447,4.625V511.617
		C772.196,511.617,744.299,484.064,744.299,450.201z" />
    </g>
    <g>
        <path fill="#FFBB00" d="M475.655-116.302l436.938,154.85l-0.001-30.672v-92.262c0-25.921-14.039-48.945-34.868-57.151
		L502.027-289.466c-31.399-12.367-65.346-12.367-96.745,0L29.572-141.537C8.75-133.334-5.296-110.314-5.296-84.386V7.876V38.57
		l436.985-154.872C446.031-121.423,461.248-121.423,475.655-116.302z" />
    </g>
    <g>
        <path d="M877.733-141.485L502.037-289.413c-31.398-12.368-65.347-12.368-96.745,0L29.58-141.485
		C8.76-133.282-5.285-110.263-5.287-84.334V7.931L417.037-141.75c23.951-8.47,49.271-8.47,73.271,0L912.598,7.931v-92.265
		C912.598-110.255,898.56-133.277,877.733-141.485z" />
    </g>
</svg>
